<svg width="262" height="46" viewBox="0 0 262 46" fill="none" xmlns="http://www.w3.org/2000/svg">
<path d="M22.9486 31.6855C21.5422 31.6856 20.1574 31.3367 18.917 30.6698C17.6766 30.0029 16.6189 29.0386 15.8375 27.8623C15.0562 26.6859 14.5753 25.3339 14.4376 23.9259C14.2999 22.518 14.5095 21.0976 15.0479 19.7906C15.5862 18.4836 16.4368 17.3303 17.5242 16.433C18.6115 15.5357 19.9021 14.922 21.2816 14.6463C22.6611 14.3707 24.0869 14.4415 25.4326 14.8525C26.7784 15.2636 28.0026 16.0022 28.9968 17.0029L26.9644 19.0474C26.1708 18.2493 25.1598 17.7058 24.0592 17.4856C22.9586 17.2655 21.8178 17.3786 20.7811 17.8106C19.7444 18.2426 18.8583 18.9741 18.2349 19.9127C17.6115 20.8512 17.2787 21.9547 17.2787 23.0834C17.2787 24.2122 17.6115 25.3157 18.2349 26.2542C18.8583 27.1928 19.7444 27.9243 20.7811 28.3563C21.8178 28.7883 22.9586 28.9014 24.0592 28.6813C25.1598 28.4611 26.1708 27.9176 26.9644 27.1195L28.9968 29.164C28.2028 29.9629 27.2599 30.5964 26.222 31.0279C25.1841 31.4594 24.0717 31.6806 22.9486 31.6786" fill="white"/>
<path d="M38.0225 31.6054C36.5821 31.6054 35.174 31.1757 33.9764 30.3707C32.7787 29.5658 31.8452 28.4216 31.294 27.083C30.7428 25.7443 30.5986 24.2713 30.8796 22.8502C31.1606 21.4291 31.8542 20.1238 32.8727 19.0992C33.8913 18.0747 35.189 17.377 36.6017 17.0943C38.0145 16.8116 39.4788 16.9567 40.8096 17.5112C42.1404 18.0657 43.2778 19.0046 44.0781 20.2094C44.8783 21.4141 45.3055 22.8305 45.3055 24.2794C45.3055 26.2224 44.5381 28.0858 43.1723 29.4597C41.8065 30.8335 39.9541 31.6054 38.0225 31.6054ZM38.0225 19.8498C37.1516 19.8498 36.3002 20.1096 35.576 20.5963C34.8518 21.0831 34.2874 21.7749 33.9541 22.5843C33.6208 23.3937 33.5336 24.2844 33.7035 25.1436C33.8734 26.0029 34.2929 26.7922 34.9087 27.4117C35.5246 28.0312 36.3092 28.453 37.1634 28.624C38.0177 28.7949 38.9031 28.7072 39.7077 28.3719C40.5124 28.0366 41.2001 27.4689 41.684 26.7404C42.1679 26.012 42.4262 25.1555 42.4262 24.2794C42.4262 23.1046 41.9622 21.9779 41.1364 21.1472C40.3105 20.3165 39.1905 19.8498 38.0225 19.8498Z" fill="white"/>
<path d="M116.365 31.4299L106.656 23.2674V31.0091H103.777V17.0387L113.485 25.2216V17.4595L116.365 17.4697V31.4299Z" fill="white"/>
<path d="M97.2767 20.3609V24.9303C97.2873 25.4331 97.198 25.9331 97.014 26.4008C96.83 26.8685 96.5551 27.2946 96.2053 27.654C95.8555 28.0134 95.4378 28.299 94.9769 28.4939C94.5159 28.6889 94.0209 28.7893 93.5209 28.7893C93.0209 28.7893 92.5258 28.6889 92.0649 28.4939C91.6039 28.299 91.1863 28.0134 90.8365 27.654C90.4867 27.2946 90.2117 26.8685 90.0278 26.4008C89.8438 25.9331 89.7545 25.4331 89.7651 24.9303V17.4646H86.8892V24.9303C86.8751 25.8157 87.0364 26.6951 87.3635 27.5173C87.6906 28.3394 88.1771 29.0879 88.7946 29.7191C89.4121 30.3502 90.1483 30.8515 90.9603 31.1937C91.7723 31.5358 92.6439 31.712 93.5243 31.712C94.4046 31.712 95.2762 31.5358 96.0882 31.1937C96.9002 30.8515 97.6364 30.3502 98.2539 29.7191C98.8714 29.0879 99.3579 28.3394 99.685 27.5173C100.012 26.6951 100.173 25.8157 100.159 24.9303V20.3609H97.2767Z" fill="white"/>
<path d="M123.382 17.4646H120.502V31.0091H123.382V17.4646Z" fill="white"/>
<path d="M136.112 31.6855C134.705 31.6856 133.32 31.3367 132.08 30.6698C130.84 30.0029 129.782 29.0386 129 27.8623C128.219 26.6859 127.738 25.3339 127.601 23.9259C127.463 22.518 127.672 21.0976 128.211 19.7906C128.749 18.4836 129.6 17.3303 130.687 16.433C131.774 15.5357 133.065 14.922 134.445 14.6463C135.824 14.3707 137.25 14.4415 138.596 14.8525C139.941 15.2636 141.166 16.0022 142.16 17.0029L140.127 19.0474C139.351 18.2664 138.366 17.7289 137.292 17.4999C136.218 17.2709 135.101 17.3603 134.076 17.7573C133.051 18.1543 132.163 18.8417 131.52 19.7363C130.876 20.6309 130.504 21.6942 130.449 22.7973C130.394 23.9004 130.658 24.9958 131.21 25.9507C131.761 26.9057 132.576 27.6791 133.556 28.1772C134.536 28.6753 135.639 28.8768 136.73 28.7571C137.822 28.6374 138.855 28.2017 139.706 27.5029V24.2471H142.585V28.7466L142.163 29.1708C141.369 29.9698 140.426 30.6032 139.388 31.0347C138.35 31.4662 137.238 31.6874 136.115 31.6855" fill="white"/>
<path d="M150.572 16.9229L143.562 31.0091H146.775L150.572 23.2606L154.37 31.0091H157.581L150.572 16.9229Z" fill="white"/>
<path d="M168.397 17.4646H156.88V20.3609H161.199V31.0091H164.078V20.3609H168.397V17.4646Z" fill="white"/>
<path d="M55.9368 25.7549L60.774 22.4906V31.0091H63.6533V17.0387L55.9233 22.2912L48.1932 17.0387V28.1128H51.0725V22.4906L55.908 25.7549H55.9368Z" fill="white"/>
<path d="M53.9518 28.1128H51.0725V31.0091H53.9518V28.1128Z" fill="white"/>
<path d="M75.5279 25.7549L80.3651 22.4906V31.0091H83.2444V17.0387L75.5143 22.2912L67.7843 17.0387V31.0091H70.6635V22.4906L75.4991 25.7549H75.5279Z" fill="white"/>
<path d="M97.2767 17.4646H94.3974V20.3609H97.2767V17.4646Z" fill="white"/>
<path d="M171.281 20.3609L171.283 31.004H179.921V28.1077H174.162V25.6083H179.46V22.9574H174.162V20.3609H171.281Z" fill="white"/>
<path d="M179.921 17.4646H174.162V20.3609H179.921V17.4646Z" fill="white"/>
<path d="M139.702 21.3508H133.944V24.2471H139.702V21.3508Z" fill="white"/>
<path d="M187.154 22.0765H188.983C189.029 22.5586 189.246 22.9539 190.043 22.9539C190.596 22.9539 190.906 22.6813 190.906 22.2844C190.906 21.8874 190.653 21.7562 189.845 21.6335C187.95 21.4069 187.305 20.8413 187.305 19.4818C187.305 18.2636 188.299 17.3777 189.903 17.3777C191.507 17.3777 192.426 18.0592 192.548 19.4818H190.775C190.709 18.9996 190.436 18.7543 189.911 18.7543C189.386 18.7543 189.132 18.9911 189.132 19.3301C189.132 19.7084 189.339 19.8787 190.174 19.9912C191.868 20.1803 192.745 20.6232 192.745 22.0867C192.745 23.3219 191.769 24.3322 190.043 24.3322C188.167 24.3322 187.21 23.54 187.154 22.0765Z" fill="#FF9300"/>
<path d="M197.706 21.332L195.521 17.4714H197.613L198.747 19.7458L199.882 17.4714H201.722L199.638 21.332V24.2181H197.706V21.332Z" fill="#FF9300"/>
<path d="M204.497 22.0765H206.323C206.371 22.5586 206.586 22.9539 207.384 22.9539C207.937 22.9539 208.247 22.6813 208.247 22.2844C208.247 21.8874 207.993 21.7562 207.187 21.6335C205.292 21.4069 204.647 20.8413 204.647 19.4818C204.647 18.2636 205.642 17.3777 207.246 17.3777C208.85 17.3777 209.77 18.0592 209.892 19.4818H208.119C208.053 18.9996 207.78 18.7543 207.257 18.7543C206.733 18.7543 206.477 18.9911 206.477 19.3301C206.477 19.7084 206.684 19.8787 207.519 19.9912C209.213 20.1803 210.088 20.6232 210.088 22.0867C210.088 23.3219 209.113 24.3322 207.378 24.3322C205.51 24.3322 204.553 23.54 204.497 22.0765Z" fill="#FF9300"/>
<path d="M214.91 18.9621H213.174V17.4714H218.579V18.9621H216.843V24.2181H214.91V18.9621Z" fill="#FF9300"/>
<path d="M222.244 17.4714H226.878V18.9621H224.156V20.1241H226.324V21.5006H224.156V22.7273H227.036V24.2181H222.244V17.4714Z" fill="#FF9300"/>
<path d="M230.792 17.4714H233.296L234.581 21.0662L235.867 17.4714H238.324V24.2181H236.41V20.0201L234.777 24.2181H234.139L232.516 20.0201V24.2181H230.801L230.792 17.4714Z" fill="#FF9300"/>
<path d="M242.011 22.0765H243.84C243.886 22.5586 244.103 22.9539 244.901 22.9539C245.453 22.9539 245.763 22.6813 245.763 22.2844C245.763 21.8874 245.51 21.7562 244.703 21.6335C242.807 21.4069 242.17 20.8413 242.17 19.4818C242.17 18.2636 243.165 17.3777 244.769 17.3777C246.373 17.3777 247.292 18.0592 247.414 19.4818H245.632C245.566 18.9996 245.294 18.7543 244.769 18.7543C244.244 18.7543 243.99 18.9911 243.99 19.3301C243.99 19.7084 244.196 19.8787 245.031 19.9912C246.725 20.1803 247.602 20.6232 247.602 22.0867C247.602 23.3219 246.627 24.3322 244.892 24.3322C243.024 24.3322 242.06 23.54 242.011 22.0765Z" fill="#FF9300"/>
</svg>
