<svg id="Слой_1" data-name="Слой 1" xmlns="http://www.w3.org/2000/svg" viewBox="0 0 142 44"><defs><style>.cls-1{fill:#1469c8}</style></defs><path class="cls-1" d="M12.646 18.418h2.415l4.601 16.352h-2.005l-1.297-4.699h-5.173l-1.207 4.7H7.975zm1.186 1.318h-.046l-2.164 8.7h4.33zm9.065 9.858c0 2.406.683 3.93 3.099 3.93 1.845 0 3.122-.796 3.122-2.726 0-2.112-1.004-2.635-2.666-3.27l-2.416-.908c-1.503-.567-2.643-1.702-2.643-4.293 0-2.59 1.8-4.225 4.466-4.225 2.847 0 4.534 1.613 4.671 4.611h-1.824c0-1.793-.887-2.975-2.71-2.975a2.397 2.397 0 0 0-2.711 2.589c0 1.498.387 2.157 1.436 2.544l2.621.976c2.598.978 3.669 2.521 3.669 4.68 0 3.088-1.914 4.632-5.059 4.632-3.144 0-4.875-2.042-4.875-5.562h1.82v-.005zm15.175 5.178h-1.824V20.054h-4.26v-1.636H42.31v1.636h-4.237v14.718zm8.088 0h-1.822V18.418h4.989c2.871 0 4.762 1.386 4.762 4.454a3.565 3.565 0 0 1-2.962 3.77v.045c1.731.205 2.803 1.681 2.803 3.703 0 3.406.296 3.52.546 4.02v.362h-1.845a10.589 10.589 0 0 1-.525-3.793c0-2.157-.957-3.406-2.985-3.406H46.16v7.199zm0-8.836h3.167a2.672 2.672 0 0 0 2.871-2.998c0-2.36-1.344-2.884-2.94-2.884H46.16v5.882zm14.895-7.518h2.414l4.603 16.352h-2.006l-1.298-4.699h-5.172l-1.208 4.7h-2.004zm1.184 1.318h-.045l-2.163 8.7h4.328zm16.227 13.401h6.696v1.635h-8.519V18.418h1.823zm10.731 1.635h-1.822V18.418h1.822zm6.293-16.354l4.649 13.377c.204.569.364 1.047.57 1.799h.067c-.023-.593-.067-1.23-.067-1.82V18.418h1.823V34.77h-2.986l-4.58-13.08a12.817 12.817 0 0 1-.615-2.453h-.044c.022.817.044 1.657.044 2.497V34.77H92.53V18.418zm12.211 0v11.766c0 1.271.183 3.34 3.1 3.34 2.914 0 3.097-2.069 3.097-3.34V18.418h1.823v12.424c0 2.908-1.937 4.315-4.919 4.315-2.986 0-4.921-1.406-4.921-4.315V18.418zm12.475 0l3.443 6.381 3.44-6.381h2.026l-4.396 7.95 4.488 8.402h-2.072l-3.485-6.836-3.555 6.836h-2.027l4.533-8.401-4.42-7.951z"/><path class="cls-1" d="M95.947 42.17H8.094a6.25 6.25 0 0 1-6.259-6.24V16.657a6.248 6.248 0 0 1 6.258-6.238h56.46a.917.917 0 0 0 .917-.915.917.917 0 0 0-.918-.916H8.094A8.082 8.082 0 0 0 0 16.658V35.93A8.083 8.083 0 0 0 8.095 44h87.852v-1.83z"/><path class="cls-1" d="M133.906 8.589H77.475a.917.917 0 0 0-.919.916.917.917 0 0 0 .919.915h56.431a6.25 6.25 0 0 1 6.259 6.24v19.27a6.252 6.252 0 0 1-6.262 6.242H95.947V44h37.96A8.089 8.089 0 0 0 142 35.93V16.659a8.091 8.091 0 0 0-8.094-8.07z"/><path class="cls-1" d="M78.103 5.639l-4.817-.827L71.463.967 71.003 0l-2.287 4.812-4.82.826 3.443 3.72-.771 5.278 4.434-2.427 4.435 2.426-.776-5.276c.614-.665 2.706-2.923 2.808-3.034zm-4.06 3.48l.656 4.406-3.697-2.023-3.7 2.025.655-4.407-2.88-3.11 4.027-.694L71 1.326l1.893 3.99 4.03.694z"/><path class="cls-1" d="M68.286 9.932l1.337 1.813.574-.315-2.22-4.585 2.923 4.2.1-.055 1.021.559-2.247-4.934 3.826 5.8.52.283-.084-.561-2.468-5.752 2.121 3.376-.115-.786.648-.7-.858-2.119 1.11 1.849 1.572-1.698-3.454-.592L71 2.36l-1.593 3.355-3.452.592 2.472 2.668-.141.957zm-.14.958l-.264 1.808.933-.511-.669-1.297zm66.335 9.602a2.146 2.146 0 1 1-2.142-2.131 2.136 2.136 0 0 1 2.142 2.131zm-3.966 0a1.82 1.82 0 1 0 1.824-1.812 1.817 1.817 0 0 0-1.824 1.812zm1.02-1.2h1.055c.41 0 .855.132.855.642 0 .484-.365.653-.758.653l.717 1.104h-.353l-.679-1.104h-.53v1.104h-.306zm.308 1.07h.706c.223 0 .588-.04.588-.438 0-.359-.326-.404-.617-.404h-.677v.842z"/></svg>