<?xml version="1.0" encoding="UTF-8"?> <!-- Generator: Adobe Illustrator 23.0.1, SVG Export Plug-In . SVG Version: 6.00 Build 0) --> <svg xmlns="http://www.w3.org/2000/svg" xmlns:xlink="http://www.w3.org/1999/xlink" id="Layer_1" x="0px" y="0px" viewBox="0 0 161 37" style="enable-background:new 0 0 161 37;" xml:space="preserve"> <style type="text/css"> .st0{fill:url(#SVGID_1_);} .st1{fill:url(#SVGID_2_);} .st2{fill:url(#SVGID_3_);} .st3{fill:#FFFFFF;} </style> <title>logo-color_m6</title> <linearGradient id="SVGID_1_" gradientUnits="userSpaceOnUse" x1="26.5" y1="827.6113" x2="26.5" y2="804.6082" gradientTransform="matrix(1 0 0 1 0 -804.6097)"> <stop offset="0" style="stop-color:#FF8745"></stop> <stop offset="1" style="stop-color:#D13700"></stop> </linearGradient> <path class="st0" d="M24.9,22.3l-9.2-9.2c-0.9-0.9-0.9-2.3,0-3.2c0,0,0,0,0,0l9.2-9.2c0.9-0.9,2.3-0.9,3.2,0c0,0,0,0,0,0l9.2,9.2 c0.9,0.9,0.9,2.3,0,3.2c0,0,0,0,0,0l-9.2,9.2C27.2,23.2,25.8,23.2,24.9,22.3C24.9,22.3,24.9,22.3,24.9,22.3z"></path> <linearGradient id="SVGID_2_" gradientUnits="userSpaceOnUse" x1="11.5" y1="841.7397" x2="11.5" y2="818.6898" gradientTransform="matrix(1 0 0 1 0 -804.6097)"> <stop offset="0" style="stop-color:#4EB7E5"></stop> <stop offset="1" style="stop-color:#328BCB"></stop> </linearGradient> <path class="st1" d="M9.9,36.3l-9.2-9.1c-0.9-0.9-0.9-2.4,0-3.3c0,0,0,0,0,0l9.2-9.2c0.9-0.9,2.3-0.9,3.2,0c0,0,0,0,0,0l9.2,9.2 c0.9,0.9,0.9,2.4,0,3.3c0,0,0,0,0,0l-9.2,9.1C12.2,37.2,10.8,37.2,9.9,36.3C9.9,36.3,9.9,36.3,9.9,36.3z"></path> <linearGradient id="SVGID_3_" gradientUnits="userSpaceOnUse" x1="41.5" y1="841.6398" x2="41.5" y2="818.5998" gradientTransform="matrix(1 0 0 1 0 -804.6097)"> <stop offset="0" style="stop-color:#9BDA32"></stop> <stop offset="1" style="stop-color:#6EA70E"></stop> </linearGradient> <path class="st2" d="M39.9,36.3l-9.2-9.1c-0.9-0.9-0.9-2.4,0-3.3c0,0,0,0,0,0l9.2-9.2c0.9-0.9,2.3-0.9,3.2,0c0,0,0,0,0,0l9.2,9.2 c0.9,0.9,0.9,2.4,0,3.3c0,0,0,0,0,0l-9.2,9.1C42.2,37.2,40.8,37.2,39.9,36.3C39.9,36.3,39.9,36.3,39.9,36.3z"></path> <path class="st3" d="M75.4,26.8l5.9-14.4c0.1-0.1,0-0.2-0.1-0.2H76c-0.1,0-0.1,0-0.1-0.1L74,9.2C74,9.1,74,9,74.1,9h10.8 C85,9,85,9.1,85,9.1v2.3l-6,15.6c0,0.1,0,0.1-0.1,0.1h-3.3C75.4,26.9,75.4,26.9,75.4,26.8z"></path> <path class="st3" d="M84,20.8l1-2.8c0-0.1,0.1-0.1,0.1-0.1h4.8c0.1,0,0.1,0.1,0.1,0.1v2.8c0,0.1,0,0.1-0.1,0.1h-5.8 C84,20.9,84,20.9,84,20.8z"></path> <path class="st3" d="M117.8,27v-2.7h-0.2c-1.3,0.1-2.7-0.2-3.9-0.7c-1.1-0.6-2-1.5-2.7-2.6c-0.6-1-1-2.2-0.9-3.4 c0-2.4,1.3-4.5,3.4-5.6c1.2-0.6,2.5-0.9,3.8-0.8h0.6V9h3.4v2.2h0.6c1.3,0,2.6,0.3,3.8,0.8c2.1,1.1,3.4,3.3,3.3,5.6 c0,1.2-0.3,2.4-0.9,3.4c-0.6,1.1-1.6,2-2.7,2.6c-1.2,0.5-2.6,0.8-3.9,0.7h-0.3V27H117.8z M117.8,14h-0.5c-1,0-2,0.3-2.8,1 c-0.7,0.7-1,1.6-1,2.6c-0.1,1,0.3,2,1.1,2.7c0.8,0.7,1.9,1.1,3.1,1h0.2L117.8,14L117.8,14z M121.1,21.3h0.2c1.1,0,2.2-0.3,3.1-1 c0.8-0.7,1.2-1.7,1.1-2.7c0-1-0.3-1.9-1-2.6c-0.8-0.7-1.7-1-2.8-1h-0.6V21.3z"></path> <path class="st3" d="M108,17.9c0,2.9-0.6,5.3-2,6.8c-1.6,1.6-3.8,2.5-6,2.3c-2.2,0.1-4.4-0.7-5.9-2.3c-1.3-1.5-2.1-3.9-2.1-6.8 s0.7-5.1,2.1-6.6c1.5-1.6,3.7-2.4,5.9-2.3c2.2-0.1,4.3,0.7,5.9,2.3C107.4,13.2,108.1,15.5,108,17.9z M95.7,17.9 c-0.1,1.6,0.3,3.2,1.1,4.7c0.7,1,1.9,1.6,3.2,1.6c2.8,0,4.3-2.3,4.3-6.2s-1.4-6.2-4.2-6.2c-1.3,0-2.5,0.6-3.2,1.7 C96,14.8,95.6,16.4,95.7,17.9z"></path> <path class="st3" d="M74,14.5c0.1,1.7-0.6,3.4-1.9,4.5c-1.6,1.1-3.5,1.6-5.4,1.5H65V27h-4V9h6c1.8-0.1,3.7,0.4,5.2,1.4 C73.4,11.4,74.1,12.9,74,14.5z M65,17.4h1.3c1,0.1,1.9-0.2,2.8-0.7c0.6-0.5,1-1.2,0.9-2c0.1-0.7-0.2-1.5-0.7-2 c-0.7-0.5-1.5-0.7-2.4-0.6H65V17.4L65,17.4z"></path> <path class="st3" d="M131.1,9h3.2v8.6l-0.1,2.3l-0.2,2.6h0.1l7.7-13.5h4.3V27h-3.1v-8.7c0-1.2,0.1-2.8,0.2-5.1H143l-7.7,13.8H131 L131.1,9L131.1,9z"></path> <path class="st3" d="M156,12.1c-1.3-0.1-2.4,0.5-3.1,1.6c-0.8,1.3-1.2,2.8-1.2,4.3c0,3.8,1.4,6.2,4.3,6.2c1.5-0.1,3-0.4,4.4-0.9v2.8 c-1.5,0.6-3.1,0.9-4.7,0.9c-2.1,0.1-4.2-0.7-5.6-2.2c-1.4-1.5-2-3.9-2-6.7c0-1.6,0.3-3.2,1-4.7c0.6-1.3,1.6-2.4,2.8-3.1 c1.3-0.7,2.7-1.1,4.2-1.1c1.7,0,3.4,0.4,5,1.2l-1.1,3c-0.6-0.3-1.3-0.6-1.9-0.8C157.3,12.2,156.6,12.1,156,12.1z"></path> </svg> 