<svg xmlns="http://www.w3.org/2000/svg" width="86" height="98"><g fill="none" fill-rule="evenodd"><path fill="#4993E7" d="M61.618 35.315V64.99c0 1.759-2.124 1.759-3.063.825C52.921 60.18 38.63 45.884 32.979 40.24c-.807-.815-.251-2.174.889-2.174h21.095c.426 0 1.027-.163 1.437-.572.725-.733 1.805-1.813 3.051-3.058.83-.83 2.167-.181 2.167.879m-37.554-.639c5.966 5.968 23.375 23.383 29.6 29.606.812.813.256 2.162-.879 2.162h-6.174c-.727 0-1.174-.29-1.518-.64l-7.425-7.424a2.147 2.147 0 0 0-1.49-.616h-5.634c-.442 0-1.032-.171-1.442-.585a4120.94 4120.94 0 0 1-6.61-6.611 2.055 2.055 0 0 1-.618-1.47v-13.56c0-1.102 1.334-1.713 2.19-.862"/><path fill="#4993E7" d="M40.217 64.297c-1.347-1.348-2.767-2.767-3.526-3.532a2.127 2.127 0 0 0-1.512-.622H30.38a2.08 2.08 0 0 0-1.44.6l-3.549 3.544a1.266 1.266 0 0 0 .928 2.161h13.004c1.123 0 1.692-1.353.894-2.15M61.553 9.411l-3.14 3.145a8.793 8.793 0 0 1-5.59 15.58 8.764 8.764 0 0 1-6.79-3.205l-4.292 4.292-4.291-4.292a8.76 8.76 0 0 1-6.78 3.2 8.797 8.797 0 0 1-5.6-15.58l-3.184-3.183c-.693-.694-2.113-.252-2.113.917 0 5.535.006 14.826.006 15.934 0 .492.257 1.076.595 1.415l7.446 7.446c.404.404.956.606 1.497.606h24.67c.463 0 1.02-.163 1.48-.617.419-.425 7.303-7.304 7.69-7.698.36-.354.575-.955.575-1.424V10.29c0-1.082-1.35-1.709-2.18-.879"/><path fill="#4993E7" d="M18.933 0h3.04c.53 0 1.07.212 1.524.665.37.372 13.767 13.774 17.364 17.372.41.409 1.23.535 1.78-.017C46.272 14.389 59.659 1.009 60.046.622A2.142 2.142 0 0 1 61.525 0h3.009c1.183 0 1.703 1.37.91 2.167-6.44 6.442-23.704 23.698-23.704 23.698L18.058 2.177c-.85-.851-.216-2.177.875-2.177m39.895 19.363a5.95 5.95 0 0 1-10.75 3.521l8.325-8.32a5.955 5.955 0 0 1 2.425 4.8M35.392 22.88a5.957 5.957 0 0 1-10.76-3.522c0-1.97.961-3.718 2.434-4.799.962.961 7.496 7.495 8.326 8.32"/><path fill="#F15857" d="M31.871 4.574h19.762c.431 0 .601.496.328.775l-9.33 9.308c-.432.431-1.26.536-1.79.006l-9.33-9.33c-.229-.224-.109-.759.36-.759"/><path fill="#52555D" d="M6.681 80.15L4.33 78.837c-1.272-.705-1.607-1.097-1.607-1.741 0-.885.607-1.392 2.06-1.392 1.271 0 2.565.08 3.854.196h.043a.34.34 0 0 0 .334-.35v-1.452c0-.197-.16-.333-.355-.372-.667-.157-2.468-.196-3.763-.196C1.25 73.529 0 74.938 0 77.095c0 1.369.486 2.506 2.308 3.586l2.588 1.544c1.295.764 1.665 1.158 1.665 1.922 0 1.136-.53 1.763-2.27 1.763-.726 0-2.687-.097-3.467-.195H.782a.375.375 0 0 0-.373.37V87.5c0 .212.18.349.372.386.943.22 1.948.198 3.418.198 3.92 0 5.203-1.96 5.203-3.937 0-1.55-.57-2.805-2.72-3.996m23.628-6.464c-.295-.08-1.583-.158-3.095-.158-2.348 0-5.542.922-5.542 5.836v2.882c0 4.837 3.194 5.868 5.542 5.868 1.512 0 2.8-.109 3.095-.19.256-.077.43-.175.43-.448v-1.31c0-.235-.097-.415-.392-.415h-.038c-.683.06-2.021.158-3.058.158-1.643 0-2.838-.939-2.838-3.663v-2.882c0-2.78 1.195-3.663 2.838-3.663 1.037 0 2.375.098 3.058.158h.038c.295 0 .393-.174.393-.409v-1.317c0-.273-.175-.37-.431-.447m12.871-.157h-1.936c-.218 0-.395.151-.395.37v8.794c0 2.233-.55 3.293-2.663 3.293-2.111 0-2.664-1.06-2.664-3.293V73.9c0-.219-.175-.37-.393-.37h-1.939c-.218 0-.392.151-.392.37v8.794c0 4.178 2.233 5.547 5.388 5.547 3.156 0 5.389-1.369 5.389-5.547V73.9c0-.219-.18-.37-.395-.37m10.112 8.44c1.604-.623 2.647-1.917 2.647-3.997V77.8c0-3.348-2.626-4.428-5.645-4.428-1.43 0-2.816.098-3.837.256-.393.06-.628.192-.628.59v13.474c0 .217.175.392.393.392h1.96c.213 0 .37-.175.37-.392v-5.307c.449.016 1.235.076 1.742.076h.274l2.822 5.231c.098.195.174.392.393.392h2.39c.155 0 .236-.097.236-.235 0-.037 0-.097-.038-.157l-3.08-5.722zm-.055-3.997c0 1.725-.922 2.276-2.943 2.276-.333 0-1.43-.038-1.741-.06v-4.406c.349-.043 1.332-.08 1.74-.08 1.962 0 2.944.627 2.944 2.096v.174zm7.714-4.443h-1.938c-.214 0-.394.151-.394.37v13.791c0 .217.18.392.395.392h1.937a.392.392 0 0 0 .394-.392v-13.79c0-.22-.175-.372-.394-.372m12.13.001h-9.58c-.214 0-.395.151-.395.37v1.551c0 .212.181.35.394.35h3.43v11.89c0 .217.18.392.391.392h1.94a.392.392 0 0 0 .392-.392v-11.89h3.428c.212 0 .393-.138.393-.35v-1.55c0-.22-.18-.372-.393-.372m12.108.001h-2.156c-.18 0-.316.151-.371.31l-2.352 5.251c-.138.338-.258.395-.355.395-.077 0-.192-.057-.327-.395l-2.354-5.25c-.06-.16-.197-.312-.372-.312h-2.177c-.197 0-.312.136-.312.295 0 .038.017.092.038.152l2.96 6.218c.37.858.9 2.047 1.195 2.615v4.882c0 .217.154.392.372.392h1.959c.212 0 .372-.175.372-.392V82.81a61.83 61.83 0 0 0 1.194-2.615l2.976-6.218c.023-.06.044-.097.044-.152 0-.159-.142-.295-.333-.295m-65.56.135c-.627-.098-1.299-.152-3.723-.152-2.97 0-4.525 1.016-4.525 3.892v6.835c0 2.997 1.768 3.909 4.432 3.909 2.331 0 3.19-.066 3.816-.163.29-.04.387-.137.387-.41V86.32a.39.39 0 0 0-.387-.393h-3.996c-1.136 0-1.55-.393-1.55-1.687v-2.522h5.312c.212 0 .386-.18.386-.393v-1.414a.389.389 0 0 0-.386-.388h-5.313v-2.118c0-1.294.415-1.681 1.551-1.681h3.996a.394.394 0 0 0 .387-.393v-1.256c0-.273-.097-.371-.387-.41M4.133 92.473H2.812v4.591a.156.156 0 0 1-.154.152H1.91a.157.157 0 0 1-.153-.152v-4.59H.438c-.083 0-.154-.057-.154-.138v-.6c0-.082.07-.142.154-.142h3.695c.088 0 .152.06.152.141v.601c0 .081-.064.137-.152.137m3.903 4.694c-.241.038-.535.077-1.436.077-1.032 0-1.746-.235-1.746-1.523v-2.637c0-1.289.742-1.535 1.746-1.535.901 0 1.195.05 1.436.088.114.017.152.054.152.158v.486a.147.147 0 0 1-.152.147h-1.54c-.502 0-.6.16-.6.656v.818h2.053c.081 0 .147.066.147.147v.547a.15.15 0 0 1-.147.152H5.896v.973c0 .501.06.654.6.654h1.54c.088 0 .152.065.152.148v.486c0 .11-.038.141-.152.158m48.723 0c-.24.038-.535.077-1.435.077-1.032 0-1.747-.235-1.747-1.523v-2.637c0-1.289.742-1.535 1.747-1.535.9 0 1.195.05 1.435.088.115.017.154.054.154.158v.486a.149.149 0 0 1-.154.147h-1.54c-.507 0-.6.16-.6.656v.818h2.054c.08 0 .146.066.146.147v.547a.15.15 0 0 1-.146.152h-2.054v.973c0 .501.06.654.6.654h1.54c.088 0 .154.065.154.148v.486c0 .11-.04.141-.154.158m8.43 0c-.24.038-.535.077-1.437.077-1.031 0-1.747-.235-1.747-1.523v-2.637c0-1.289.743-1.535 1.747-1.535.902 0 1.197.05 1.437.088.115.017.152.054.152.158v.486a.148.148 0 0 1-.152.147h-1.54c-.507 0-.601.16-.601.656v.818H65.1c.083 0 .148.066.148.147v.547a.15.15 0 0 1-.148.152h-2.053v.973c0 .501.06.654.6.654h1.54c.087 0 .153.065.153.148v.486c0 .11-.037.141-.152.158M12.2 97.15a5.325 5.325 0 0 1-1.194.127c-.906 0-2.14-.447-2.14-2.314v-1.114c0-1.9 1.234-2.315 2.14-2.315.583 0 1.08.087 1.194.12.1.033.166.065.166.175v.508c0 .086-.04.157-.149.157H12.2c-.26-.026-.78-.06-1.177-.06-.64 0-1.098.339-1.098 1.415v1.114c0 1.047.458 1.408 1.098 1.408.398 0 .917-.033 1.178-.06h.016c.11 0 .149.07.149.164v.5c0 .11-.066.15-.165.176m5.176.065h-.753a.151.151 0 0 1-.148-.152v-2.316h-2.15v2.316a.153.153 0 0 1-.154.152h-.748a.152.152 0 0 1-.148-.152v-5.329c0-.08.066-.14.148-.14h.748c.087 0 .153.06.153.14v2.091h2.151v-2.09c0-.082.065-.142.148-.142h.753c.081 0 .146.06.146.141v5.33a.15.15 0 0 1-.146.151m5.147 0h-.764c-.18 0-.339 0-.459-.272l-1.68-3.686c-.023-.048-.05-.06-.072-.06-.02 0-.038.012-.038.06v3.806c0 .081-.06.152-.143.152h-.644a.152.152 0 0 1-.147-.152v-5.17c0-.164.137-.3.301-.3h.82c.157 0 .24.043.331.24l1.76 3.887c.015.037.036.065.064.065.011 0 .032-.028.032-.07v-3.98c0-.082.066-.142.148-.142h.65c.081 0 .141.06.141.141v5.175a.307.307 0 0 1-.3.306m3.299.061c-1.251 0-2.156-.7-2.156-2.363v-1.022c0-1.665.905-2.358 2.156-2.358 1.244 0 2.15.693 2.15 2.358v1.022c0 1.664-.906 2.363-2.15 2.363zm1.097-3.385c0-1-.355-1.441-1.097-1.441-.744 0-1.1.442-1.1 1.44v1.023c0 .997.356 1.446 1.1 1.446.742 0 1.097-.45 1.097-1.446v-1.022zm4.972 3.275c-.229.055-.883.077-1.283.077-1.102 0-1.752-.235-1.752-1.523v-3.975c0-.088.071-.152.153-.152h.748c.088 0 .153.064.153.152v3.975c0 .501.153.654.589.654h1.392c.083 0 .154.065.154.148v.486c0 .11-.039.136-.154.158m2.611.11c-1.245 0-2.157-.7-2.157-2.363v-1.022c0-1.665.912-2.358 2.157-2.358 1.25 0 2.155.693 2.155 2.358v1.022c0 1.664-.905 2.363-2.155 2.363zm1.097-3.385c0-1-.355-1.441-1.097-1.441-.738 0-1.1.442-1.1 1.44v1.023c0 .997.362 1.446 1.1 1.446.742 0 1.097-.45 1.097-1.446v-1.022zm5.568 3.253c-.376.077-.868.132-1.65.132-.818 0-2.024-.541-2.024-2.326V93.86c0-1.792 1.146-2.326 2.047-2.326.727 0 1.375.087 1.627.135.098.023.143.061.143.16v.507c0 .103-.03.158-.15.158h-.025c-.344-.032-.868-.06-1.595-.06-.507 0-.988.355-.988 1.426v1.091c0 1.075.518 1.424.966 1.424.279 0 .514-.01.749-.026v-1.928c0-.082.06-.152.14-.152h.754c.083 0 .149.07.149.152v2.544c0 .099-.045.159-.143.18m4.886-5.376l-1.146 2.429c-.148.332-.312.687-.464.988v1.878c0 .081-.06.147-.142.147h-.76a.143.143 0 0 1-.141-.147v-1.878a11.984 11.984 0 0 1-.458-.988l-1.147-2.429c-.006-.028-.016-.045-.016-.06 0-.06.049-.115.125-.115h.836c.07 0 .12.06.147.12l.906 2.057c.049.132.098.154.126.154.038 0 .087-.022.135-.154l.913-2.057c.02-.06.076-.12.14-.12h.83c.078 0 .133.055.133.115 0 .021-.006.032-.017.06m6.796 5.447h-.922c-.087 0-.115-.077-.153-.152l-1.092-2.02h-.104c-.196 0-.496-.028-.671-.033v2.053c0 .081-.06.152-.142.152h-.759a.157.157 0 0 1-.153-.152v-5.209c0-.146.093-.2.241-.223.398-.06.933-.098 1.484-.098 1.163 0 2.179.415 2.179 1.707v.072c0 .797-.399 1.3-1.021 1.54l1.19 2.211a.124.124 0 0 1 .011.06c0 .05-.028.092-.088.092zm-1.135-3.975c0-.567-.377-.807-1.136-.807-.158 0-.534.016-.671.028v1.702c.12.011.541.022.671.022.781 0 1.136-.212 1.136-.873v-.072zm7.517 4.036c-.567 0-.977-.055-1.337-.143-.077-.01-.148-.064-.148-.147v-.546c0-.081.071-.141.148-.141h.011c.305.038 1.063.07 1.343.07.67 0 .873-.24.873-.676 0-.295-.142-.448-.639-.743l-.999-.595c-.704-.421-.896-.857-.896-1.387 0-.83.487-1.435 1.895-1.435.497 0 1.196.07 1.453.136.075.017.135.065.135.142v.562c0 .077-.054.137-.13.137h-.017a15.269 15.269 0 0 0-1.49-.077c-.557 0-.792.197-.792.535 0 .252.126.404.617.67l.912.51c.83.464 1.048.945 1.048 1.545 0 .764-.475 1.583-1.987 1.583m11.098-.061h-.802c-.066 0-.126-.065-.143-.13l-.349-1.436h-1.742l-.343 1.435c-.016.066-.076.131-.147.131h-.802a.129.129 0 0 1-.13-.13c0-.007.004-.022.004-.039l1.238-4.745c.18-.703.727-.768 1.054-.768.323 0 .868.065 1.048.768l1.245 4.745c0 .017.006.032.006.038 0 .077-.06.131-.137.131zm-2.042-4.679c-.02-.087-.043-.12-.12-.12-.075 0-.098.033-.12.12l-.545 2.25h1.331l-.546-2.25zm6.885 4.679h-.922c-.082 0-.115-.077-.153-.152l-1.087-2.02h-.11c-.196 0-.495-.028-.67-.033v2.053c0 .081-.06.152-.142.152h-.76a.156.156 0 0 1-.152-.152v-5.209c0-.146.093-.2.246-.223.393-.06.929-.098 1.479-.098 1.168 0 2.179.415 2.179 1.707v.072c0 .797-.398 1.3-1.022 1.54l1.19 2.211c.018.021.018.043.018.06a.09.09 0 0 1-.094.092zm-1.135-3.975c0-.567-.377-.807-1.136-.807-.158 0-.535.016-.671.028v1.702c.12.011.546.022.67.022.782 0 1.137-.212 1.137-.873v-.072zm5.115 3.909a5.346 5.346 0 0 1-1.196.127c-.906 0-2.14-.447-2.14-2.314v-1.114c0-1.9 1.234-2.315 2.14-2.315.584 0 1.081.087 1.196.12.098.033.164.065.164.175v.508c0 .086-.038.157-.149.157h-.015c-.263-.026-.78-.06-1.18-.06-.638 0-1.097.339-1.097 1.415v1.114c0 1.047.46 1.408 1.097 1.408.4 0 .917-.033 1.18-.06h.015c.111 0 .15.07.15.164v.5c0 .11-.067.15-.165.176m5.176.065h-.753a.152.152 0 0 1-.15-.152v-2.316h-2.15v2.316a.153.153 0 0 1-.152.152h-.748a.152.152 0 0 1-.148-.152v-5.329c0-.08.066-.14.148-.14h.748c.087 0 .153.06.153.14v2.091h2.15v-2.09c0-.082.066-.142.148-.142h.754c.08 0 .146.06.146.141v5.33a.15.15 0 0 1-.146.151"/></g></svg>