<?xml version="1.0" encoding="UTF-8" standalone="no"?>
<svg
   xmlns:dc="http://purl.org/dc/elements/1.1/"
   xmlns:cc="http://creativecommons.org/ns#"
   xmlns:rdf="http://www.w3.org/1999/02/22-rdf-syntax-ns#"
   xmlns:svg="http://www.w3.org/2000/svg"
   xmlns="http://www.w3.org/2000/svg"
   xmlns:sodipodi="http://sodipodi.sourceforge.net/DTD/sodipodi-0.dtd"
   xmlns:inkscape="http://www.inkscape.org/namespaces/inkscape"
   id="_1"
   data-name="1"
   viewBox="0 0 258.59999 41.099998"
   version="1.1"
   sodipodi:docname="termidesk_logo.svg"
   width="258.60001"
   height="41.099998"
   inkscape:version="0.92.3 (2405546, 2018-03-11)">
  <metadata
     id="metadata4838">
    <rdf:RDF>
      <cc:Work
         rdf:about="">
        <dc:format>image/svg+xml</dc:format>
        <dc:type
           rdf:resource="http://purl.org/dc/dcmitype/StillImage" />
        <dc:title>termidesk_for astra_white on blue</dc:title>
      </cc:Work>
    </rdf:RDF>
  </metadata>
  <sodipodi:namedview
     pagecolor="#ffffff"
     bordercolor="#666666"
     borderopacity="1"
     objecttolerance="10"
     gridtolerance="10"
     guidetolerance="10"
     inkscape:pageopacity="0"
     inkscape:pageshadow="2"
     inkscape:window-width="1152"
     inkscape:window-height="589"
     id="namedview4836"
     showgrid="false"
     inkscape:zoom="2.0912967"
     inkscape:cx="153.48657"
     inkscape:cy="10.359778"
     inkscape:window-x="2387"
     inkscape:window-y="313"
     inkscape:window-maximized="0"
     inkscape:current-layer="_1" />
  <defs
     id="defs4789">
    <style
       id="style4787">.cls-1{fill:#0af;}.cls-2{fill:#fff;}</style>
  </defs>
  <title
     id="title4791">termidesk_for astra_white on blue</title>
  <path
     class="cls-2"
     d="M 35.6,10.2 17.7,0 0,10.4 0.1,30.9 17.9,41.1 35.6,30.7 Z M 17.9,40 1.1,30.4 1,11 17.7,1.2 l 16.8,9.6 0.1,19.4 z"
     id="path4795"
     inkscape:connector-curvature="0"
     style="fill:#ffffff" />
  <rect
     class="cls-2"
     x="5.9000001"
     y="28.700001"
     width="23.700001"
     height="1.7"
     id="rect4797"
     style="fill:#ffffff" />
  <path
     class="cls-2"
     d="M 5.9,27.2 H 29.6 V 11 H 5.9 Z m 22,-1.7 H 18.6 V 12.7 h 9.3 z M 7.6,12.7 h 9.3 V 25.5 H 7.6 Z"
     id="path4799"
     inkscape:connector-curvature="0"
     style="fill:#ffffff" />
  <path
     class="cls-2"
     d="m 45.1,10.5 h 23.2 v 2.3 H 58 V 30.6 H 55.4 V 12.8 H 45.1 Z"
     id="path4801"
     inkscape:connector-curvature="0"
     style="fill:#ffffff" />
  <path
     class="cls-2"
     d="m 91.8,10.5 v 2.3 H 73.3 v 6.6 h 14.9 v 2.3 H 73.3 v 6.6 h 18.5 v 2.3 H 70.7 V 10.5 Z"
     id="path4803"
     inkscape:connector-curvature="0"
     style="fill:#ffffff" />
  <path
     class="cls-2"
     d="m 118.4,13.9 v 5.9 a 3.36,3.36 0 0 1 -1.1,2.4 3.94,3.94 0 0 1 -2.7,1 h -3.5 l 7.3,7.5 H 115 l -7.2,-7.5 H 99.3 A 8.47,8.47 0 0 1 98,23.1 v 7.6 H 95.4 V 10.6 h 19.3 a 3.62,3.62 0 0 1 2.7,1 3.26,3.26 0 0 1 1,2.3 z m -19.3,7 h 15.4 a 1.61,1.61 0 0 0 0.9,-0.3 1.23,1.23 0 0 0 0.4,-0.8 v -5.9 a 0.91,0.91 0 0 0 -0.4,-0.8 1.22,1.22 0 0 0 -0.9,-0.3 H 99.1 a 1.61,1.61 0 0 0 -0.9,0.3 1.23,1.23 0 0 0 -0.4,0.8 v 5.9 a 1,1 0 0 0 0.4,0.8 1.61,1.61 0 0 0 0.9,0.3 z"
     id="path4805"
     inkscape:connector-curvature="0"
     style="fill:#ffffff" />
  <path
     class="cls-2"
     d="m 135,20.5 9.6,-10 h 3.6 v 20.1 h -2.6 V 13.1 L 135,24 124.4,13.1 v 17.6 h -2.6 V 10.5 h 3.6 z"
     id="path4807"
     inkscape:connector-curvature="0"
     style="fill:#ffffff" />
  <path
     class="cls-2"
     d="M 151.7,30.7 V 10.5 h 2.6 v 20.1 h -2.6 z"
     id="path4809"
     inkscape:connector-curvature="0"
     style="fill:#ffffff" />
  <path
     class="cls-2"
     d="m 158.8,10.5 h 19.3 a 3.62,3.62 0 0 1 2.7,1 2.89,2.89 0 0 1 1.1,2.4 v 13.4 a 3.36,3.36 0 0 1 -1.1,2.4 3.94,3.94 0 0 1 -2.7,1 h -19.3 z m 20.5,16.8 V 13.9 a 0.91,0.91 0 0 0 -0.4,-0.8 1.22,1.22 0 0 0 -0.9,-0.3 h -15.4 a 1.61,1.61 0 0 0 -0.9,0.3 1.23,1.23 0 0 0 -0.4,0.8 v 13.4 a 0.91,0.91 0 0 0 0.4,0.8 1.22,1.22 0 0 0 0.9,0.3 H 178 a 1.61,1.61 0 0 0 0.9,-0.3 1,1 0 0 0 0.4,-0.8 z"
     id="path4811"
     inkscape:connector-curvature="0"
     style="fill:#ffffff" />
  <path
     class="cls-2"
     d="m 206.7,10.5 v 2.3 h -18.5 v 6.6 h 14.9 v 2.3 h -14.9 v 6.6 h 18.5 v 2.3 H 185.5 V 10.5 Z"
     id="path4813"
     inkscape:connector-curvature="0"
     style="fill:#ffffff" />
  <path
     class="cls-2"
     d="m 233.2,13.9 v 0.8 h -2.6 v -0.8 a 1,1 0 0 0 -0.4,-0.8 1.22,1.22 0 0 0 -0.9,-0.3 h -15.4 a 1.61,1.61 0 0 0 -0.9,0.3 1.23,1.23 0 0 0 -0.4,0.8 v 4.5 a 1,1 0 0 0 0.4,0.8 1.22,1.22 0 0 0 0.9,0.3 h 15.4 a 3.62,3.62 0 0 1 2.7,1 2.89,2.89 0 0 1 1.1,2.4 v 4.4 a 3.36,3.36 0 0 1 -1.1,2.4 3.94,3.94 0 0 1 -2.7,1 h -15.4 a 3.62,3.62 0 0 1 -2.7,-1 3,3 0 0 1 -1.1,-2.4 v -0.8 h 2.6 v 0.8 a 0.91,0.91 0 0 0 0.4,0.8 1.22,1.22 0 0 0 0.9,0.3 h 15.4 a 1.61,1.61 0 0 0 0.9,-0.3 1.23,1.23 0 0 0 0.4,-0.8 v -4.5 a 1,1 0 0 0 -0.4,-0.8 1.22,1.22 0 0 0 -0.9,-0.3 h -15.5 a 3.62,3.62 0 0 1 -2.7,-1 2.89,2.89 0 0 1 -1.1,-2.4 v -4.5 a 3.36,3.36 0 0 1 1.1,-2.4 3.94,3.94 0 0 1 2.7,-1 h 15.5 a 3.62,3.62 0 0 1 2.7,1 3.77,3.77 0 0 1 1.1,2.5 z"
     id="path4815"
     inkscape:connector-curvature="0"
     style="fill:#ffffff" />
  <path
     class="cls-2"
     d="m 255.3,10.5 h 3.3 l -9.7,10.1 9.7,10.1 h -3.4 l -8.6,-8.9 h -7.5 v 8.9 h -2.6 V 10.5 h 2.6 v 8.9 h 7.5 z"
     id="path4817"
     inkscape:connector-curvature="0"
     style="fill:#ffffff" />
</svg>
