<?xml version="1.0" encoding="UTF-8"?>
<!DOCTYPE svg PUBLIC "-//W3C//DTD SVG 1.1//EN" "http://www.w3.org/Graphics/SVG/1.1/DTD/svg11.dtd">
<!-- Creator: CorelDRAW X7 -->
<svg xmlns="http://www.w3.org/2000/svg" xml:space="preserve" width="180px" height="60px" version="1.1" style="shape-rendering:geometricPrecision; text-rendering:geometricPrecision; image-rendering:optimizeQuality; fill-rule:evenodd; clip-rule:evenodd"
viewBox="0 0 180 60"
 xmlns:xlink="http://www.w3.org/1999/xlink">
 <defs>
  <style type="text/css">
   <![CDATA[
    .fil10 {fill:#002B6A}
    .fil7 {fill:#003E83}
    .fil6 {fill:#1B498F}
    .fil8 {fill:#1F4695}
    .fil9 {fill:#2252A6}
    .fil4 {fill:#255CA0}
    .fil5 {fill:#3162A9}
    .fil12 {fill:#395782}
    .fil3 {fill:#3F50AE}
    .fil2 {fill:#5470BF}
    .fil11 {fill:#6887C2}
    .fil1 {fill:#7F8FD1}
    .fil0 {fill:#1B498F;fill-rule:nonzero}
    .fil13 {fill:#FEFEFE;fill-rule:nonzero}
   ]]>
  </style>
 </defs>
 <g id="Слой_x0020_1">
  <metadata id="CorelCorpID_0Corel-Layer"/>
  <path class="fil0" d="M93 26l0 6 -3 0 0 5 3 0 0 10c0,5 4,7 8,7 2,0 4,0 6,-1l0 -5c-2,0 -3,1 -4,1 -3,0 -4,-1 -4,-3l0 -9 7 0 0 -5 -7 0 0 -8 -6 2zm16 17c0,7 6,11 12,11 4,0 6,-1 8,-1l0 -5c-2,1 -4,1 -6,1 -4,0 -7,-1 -8,-4l15 0c2,-7 -1,-14 -10,-14 -5,0 -11,4 -11,12zm16 -2l-10 0c0,-3 3,-5 5,-5 4,0 5,3 5,5zm31 12l-8 -10 8 -11 -7 0 -6 8 -2 0 0 -18 -7 0 0 31 7 0 0 -8 2 0 6 8 7 0zm21 -5l0 -7c0,-7 -4,-10 -10,-10 -3,0 -7,1 -8,2l0 5c2,-1 4,-1 7,-1 4,0 5,1 5,3l0 1c-1,0 -3,-1 -5,-1 -4,0 -9,2 -9,7 0,5 3,7 7,7 3,0 6,-1 8,-3 1,2 3,3 5,3 1,0 2,-1 3,-1l0 -4c0,0 -1,0 -1,0 -1,0 -2,0 -2,-1zm-9 -4c1,0 2,0 3,0l0 4c-1,1 -3,1 -4,1 -2,0 -4,-1 -4,-2 0,-2 2,-3 5,-3z"/>
  <polygon class="fil1" points="23,35 0,43 0,60 13,46 "/>
  <polygon class="fil2" points="26,60 13,46 0,60 "/>
  <polygon class="fil3" points="13,46 26,60 34,46 23,35 "/>
  <polygon class="fil4" points="34,46 26,60 47,60 "/>
  <polygon class="fil5" points="34,46 47,60 60,36 23,35 "/>
  <polygon class="fil6" points="23,35 60,36 46,14 "/>
  <polygon class="fil7" points="23,35 46,14 17,14 "/>
  <polygon class="fil8" points="23,35 17,14 0,14 "/>
  <polygon class="fil9" points="23,35 0,14 0,43 "/>
  <polygon class="fil10" points="46,14 60,36 83,14 83,14 "/>
  <polygon class="fil6" points="83,14 60,36 83,44 "/>
  <polygon class="fil11" points="83,44 60,36 47,60 "/>
  <polygon class="fil12" points="83,44 47,60 83,60 "/>
  <path class="fil13" d="M8 22l0 30 14 0c5,0 12,-2 12,-9 0,-4 -3,-6 -6,-7 3,-1 5,-3 5,-7 0,-5 -4,-7 -11,-7l-14 0zm18 20c0,3 -2,4 -4,4l-6 0 0 -7 6 0c2,0 4,1 4,3zm-1 -11c0,1 -2,2 -4,2l-5 0 0 -5 5 0c2,0 4,1 4,3zm13 -9l0 30 8 0 0 -30 -8 0zm12 0l0 7 8 0 0 23 8 0 0 -23 9 0 0 -7 -25 0z"/>
  <polygon class="fil6" points="103,5 90,0 83,14 "/>
 </g>
</svg>
