<?xml version="1.0" encoding="utf-8"?><svg width="160" height="42" viewBox="0 0 160 42" fill="none" xmlns="http://www.w3.org/2000/svg">
<path d="M35.5712 0H11.6511L20.6711 9.02003C20.8735 9.00906 21.0772 9.00288 21.2824 9.00288C23.3351 9.00243 25.3473 9.57475 27.0925 10.6555C28.8378 11.7362 30.2469 13.2824 31.1613 15.1203C31.3376 15.1086 31.5153 15.1018 31.6944 15.1018C33.1755 15.1024 34.627 15.517 35.885 16.2989C37.1429 17.0808 38.1572 18.1988 38.8134 19.5267L41.6481 16.6927V6.38702C41.6204 4.75438 40.9804 3.19173 39.8548 2.00875C38.7293 0.825778 37.2004 0.10883 35.5712 0V0Z" fill="#00B4FF"/>
<path d="M27.3044 31.0354L37.451 41.1819H37.4585L27.3106 31.0347H27.3044V31.0354Z" fill="#00B4FF"/>
<path d="M38.8167 19.5269L27.3104 31.0352L37.4576 41.1796C38.6772 40.7189 39.7297 39.9014 40.4778 38.8337C41.2259 37.7659 41.6348 36.4976 41.6514 35.194V16.6929L38.8167 19.5269Z" fill="#FF6E6E"/>
<path d="M4.62039 27.2947C4.31376 26.5419 4.15671 25.7366 4.158 24.9238C4.158 21.5478 6.81297 18.8112 10.0888 18.8112C10.165 18.8112 10.2404 18.8112 10.3159 18.816C10.8942 13.4971 15.2643 9.31503 20.671 9.02003L11.6509 0H6.11527C4.46747 0.105345 2.92165 0.83435 1.79217 2.03877C0.662682 3.24318 0.0343391 4.83258 0.0349125 6.48375V31.8802L4.62039 27.2947Z" fill="#23D3FF"/>
<path d="M27.3043 31.0358H10.1231H10.0922C9.19691 31.0365 8.31373 30.8287 7.51273 30.4287C6.20214 29.7676 5.17573 28.6536 4.62382 27.2935L0.0349121 31.8803V35.0999C0.0358215 36.824 0.721332 38.4773 1.94076 39.6962C3.16018 40.9151 4.81371 41.5999 6.53787 41.6001H35.1457C35.9309 41.6005 36.7097 41.4589 37.4446 41.1823L27.3043 31.0358Z" fill="#00F5D0"/>
<path d="M41.6158 6.38702C41.5884 4.75395 40.9482 3.19084 39.8221 2.00775C38.6961 0.824661 37.1665 0.108025 35.5368 0L6.07967 0C4.43199 0.105513 2.88634 0.83459 1.757 2.03899C0.627664 3.24339 -0.000584075 4.83269 4.07458e-07 6.48375V35.0998C0.00036427 36.824 0.685606 38.4774 1.905 39.6965C3.12439 40.9155 4.77806 41.6002 6.50227 41.6H35.1135C35.8987 41.6004 36.6775 41.4588 37.4124 41.1822H37.4193C38.6398 40.7218 39.6932 39.904 40.4418 38.8357C41.1904 37.7674 41.5996 36.4982 41.6158 35.1938V16.9067V6.38702Z" fill="url(#paint0_radial_377:1313)"/>
<path d="M38.8435 19.539C38.1872 18.2111 37.1728 17.0931 35.9147 16.3112C34.6566 15.5293 33.2051 15.1147 31.7238 15.114C31.5448 15.114 31.3671 15.1209 31.1915 15.1325C30.2766 13.2942 28.8668 11.7476 27.1208 10.6668C25.3748 9.5861 23.3618 9.01408 21.3084 9.01514C21.1026 9.01514 20.8968 9.02131 20.6971 9.03229C15.2905 9.32729 10.9204 13.5094 10.3421 18.8282C10.2666 18.8282 10.1911 18.8234 10.115 18.8234C6.83985 18.8234 4.18488 21.56 4.18488 24.936C4.18396 25.748 4.34101 26.5523 4.64727 27.3042C5.19869 28.6645 6.22493 29.7785 7.53549 30.4394C8.33649 30.8395 9.21967 31.0473 10.115 31.0466H10.1466H27.3277H27.3373L38.8442 19.5403L38.8435 19.539Z" fill="white"/>
<path fill-rule="evenodd" clip-rule="evenodd" d="M35.2953 18.7441C36.5762 18.7441 37.7856 18.9993 38.8579 19.5358L27.3489 31.0441V26.3345H27.3579C27.4499 24.2909 28.3262 22.3616 29.8047 20.9478C31.2831 19.534 33.2497 18.7447 35.2953 18.7441Z" fill="#FFD12F"/>
<g clip-path="url(#clip0_377:1313)">
<path fill-rule="evenodd" clip-rule="evenodd" d="M111.954 11.8108C111.231 11.0087 110.336 10.3811 109.336 9.97541C107.077 9.09999 104.572 9.09999 102.313 9.97541C101.308 10.3824 100.407 11.0096 99.6762 11.8108C98.9503 12.6354 98.3983 13.5981 98.0534 14.6411C97.4445 16.5359 97.338 18.5563 97.7443 20.5046C97.889 21.2268 98.1159 21.9301 98.4204 22.6008C98.7226 23.2345 99.1023 23.8283 99.5506 24.3685C100.502 25.5498 101.794 26.4098 103.25 26.8318C104.94 27.3086 106.729 27.3086 108.418 26.8318C109.162 26.6183 109.869 26.2926 110.515 25.8658C111.121 25.4501 111.662 24.9453 112.118 24.3685C112.569 23.8021 112.948 23.1825 113.248 22.5235C113.548 21.8512 113.775 21.1484 113.924 20.4273C114.075 19.7188 114.155 18.9974 114.166 18.2732C114.181 17.0398 113.992 15.8125 113.606 14.6411C113.252 13.5957 112.69 12.6328 111.954 11.8108V11.8108ZM111.5 21.1035C111.277 21.905 110.896 22.6538 110.379 23.3059C109.87 23.9194 109.225 24.4057 108.496 24.7259C106.785 25.3955 104.884 25.3955 103.173 24.7259C102.443 24.4057 101.798 23.9194 101.289 23.3059C100.766 22.6568 100.381 21.9072 100.159 21.1035C99.9068 20.1815 99.7833 19.229 99.7921 18.2732C99.7823 17.3241 99.9192 16.3792 100.198 15.4718C100.44 14.6667 100.841 13.9179 101.376 13.2694C101.898 12.6444 102.56 12.1513 103.308 11.8301C104.108 11.4907 104.968 11.3142 105.837 11.3108C106.706 11.3075 107.567 11.4775 108.37 11.8108C109.117 12.1345 109.778 12.6272 110.302 13.2501C110.833 13.906 111.227 14.6614 111.461 15.4718C111.74 16.3792 111.877 17.3241 111.867 18.2732C111.876 19.229 111.752 20.1815 111.5 21.1035V21.1035ZM133.486 17.3941C133.326 16.9221 133.115 16.4686 132.858 16.0418C132.617 15.639 132.314 15.277 131.959 14.9695C131.599 14.6618 131.187 14.4198 130.742 14.2547C130.254 14.075 129.736 13.9866 129.216 13.9939C128.823 13.9875 128.431 14.0462 128.057 14.1678C127.74 14.2791 127.441 14.4352 127.168 14.6314C126.921 14.8055 126.694 15.0064 126.492 15.2303C126.317 15.4278 126.153 15.6341 125.999 15.8486V15.8486V9.74357H123.768V15.8486C123.614 15.6341 123.45 15.4278 123.275 15.2303C123.078 15.0042 122.854 14.8031 122.609 14.6314C122.015 14.1997 121.295 13.9757 120.561 13.9939C120.027 13.9823 119.497 14.0708 118.996 14.2547C118.553 14.4173 118.144 14.6596 117.788 14.9695C117.428 15.2741 117.121 15.6365 116.88 16.0418C116.626 16.469 116.419 16.9224 116.262 17.3941C116.096 17.884 115.976 18.3886 115.905 18.9011C115.821 19.4316 115.776 19.9675 115.769 20.5046C115.752 21.4859 115.889 22.4638 116.175 23.4025C116.404 24.1601 116.767 24.8702 117.247 25.4987C117.655 26.0315 118.177 26.4671 118.774 26.7738C119.319 27.0492 119.921 27.1947 120.532 27.1988C120.83 27.2023 121.127 27.1764 121.42 27.1216C121.713 27.0741 121.996 26.9829 122.261 26.8511C122.543 26.701 122.8 26.5088 123.024 26.2812C123.294 25.9886 123.528 25.6643 123.719 25.3152V25.3152V31.7003H125.854V25.3345C126.039 25.6878 126.273 26.013 126.55 26.3005C126.777 26.5285 127.038 26.7207 127.323 26.8704C127.584 27.002 127.864 27.0932 128.153 27.1409C128.446 27.1958 128.744 27.2216 129.042 27.2182C129.656 27.2151 130.261 27.0696 130.81 26.7931C131.405 26.4838 131.926 26.0487 132.336 25.518C132.846 24.8896 133.236 24.1724 133.486 23.4025C133.772 22.4638 133.909 21.4859 133.891 20.5046C133.891 19.9712 133.852 19.4385 133.775 18.9107C133.722 18.3979 133.625 17.8905 133.486 17.3941ZM123.826 21.8376C123.883 22.7838 123.64 23.7237 123.13 24.5231C122.896 24.8391 122.587 25.0925 122.232 25.2609C121.876 25.4294 121.485 25.5078 121.092 25.4891C120.702 25.4931 120.316 25.4106 119.962 25.2476C119.658 25.1063 119.383 24.9098 119.15 24.668C118.916 24.4114 118.721 24.1217 118.571 23.8082C118.415 23.4754 118.289 23.1295 118.194 22.7747C118.106 22.4051 118.038 22.031 117.991 21.6541C117.953 21.2947 117.934 20.9336 117.933 20.5722C117.929 19.9561 117.988 19.3413 118.107 18.7369C118.208 18.2081 118.394 17.6991 118.658 17.2299C118.904 16.8399 119.234 16.5099 119.624 16.2639C120.07 16.0092 120.578 15.8822 121.092 15.8969C121.428 15.9029 121.759 15.9855 122.058 16.1384C122.394 16.3057 122.688 16.5467 122.918 16.8435C123.184 17.1867 123.384 17.5765 123.507 17.993C123.679 18.4903 123.767 19.0126 123.768 19.5386L123.826 21.8376ZM131.776 21.6541C131.732 22.0329 131.657 22.4077 131.554 22.7747C131.466 23.1306 131.343 23.4769 131.187 23.8082C131.037 24.1241 130.838 24.4143 130.597 24.668C130.358 24.9146 130.072 25.1116 129.757 25.2476C129.403 25.3975 129.021 25.47 128.636 25.4601C128.249 25.4784 127.863 25.3996 127.514 25.2309C127.165 25.0622 126.863 24.8089 126.637 24.4941C126.127 23.6948 125.884 22.7548 125.941 21.8087V19.5386C125.933 19.0118 126.008 18.487 126.163 17.9834C126.277 17.5569 126.467 17.1545 126.724 16.7952C126.958 16.5028 127.251 16.2626 127.583 16.0901C127.901 15.9298 128.252 15.847 128.607 15.8486C129.115 15.8365 129.616 15.9634 130.056 16.2156C130.451 16.4561 130.782 16.7873 131.022 17.1816C131.284 17.6671 131.464 18.1926 131.554 18.7369C131.681 19.3402 131.743 19.9556 131.737 20.5722C131.749 20.9329 131.743 21.294 131.718 21.6541H131.776ZM138.315 23.8952V14.3706H136.171V26.8028H138.615L144.71 17.2782V26.8028H146.855V14.3706H144.459L138.315 23.8952ZM157.142 23.7117C156.969 24.0672 156.741 24.3932 156.466 24.6776C156.21 24.9336 155.905 25.1342 155.568 25.2669C155.234 25.4036 154.876 25.4725 154.515 25.4697C154.031 25.479 153.551 25.3868 153.105 25.1993C152.689 25.0155 152.329 24.7257 152.061 24.3589C151.747 23.9169 151.52 23.4184 151.395 22.8906C151.228 22.198 151.151 21.4872 151.163 20.7751C151.156 20.1025 151.227 19.4315 151.376 18.7755C151.498 18.2215 151.721 17.6944 152.032 17.2203C152.311 16.8165 152.682 16.4853 153.114 16.2543C153.591 16.0064 154.123 15.8834 154.66 15.8969C155.024 15.8761 155.389 15.9286 155.732 16.0514C156.076 16.1742 156.391 16.3647 156.659 16.6117C157.163 17.1593 157.469 17.8598 157.529 18.6016H159.567C159.54 18.2762 159.488 17.9533 159.412 17.6356C159.325 17.284 159.206 16.9412 159.055 16.6117C158.887 16.2646 158.676 15.94 158.427 15.6457C158.149 15.3295 157.823 15.0589 157.461 14.8439C157.055 14.5968 156.616 14.4081 156.157 14.2837C155.595 14.141 155.017 14.0728 154.438 14.0808C153.723 14.0805 153.017 14.2389 152.37 14.5445C151.711 14.856 151.128 15.3077 150.661 15.8679C150.14 16.4833 149.741 17.1911 149.482 17.9544C149.174 18.849 149.024 19.7903 149.038 20.7364C149.029 21.4835 149.107 22.2291 149.27 22.9582C149.406 23.5479 149.613 24.1189 149.888 24.6583C150.124 25.1128 150.43 25.5269 150.796 25.8851C151.124 26.1982 151.491 26.4676 151.887 26.6869C152.256 26.8923 152.653 27.042 153.066 27.1312C153.442 27.2222 153.828 27.2676 154.215 27.2665C154.815 27.2732 155.413 27.1984 155.993 27.0443C156.468 26.9082 156.92 26.7031 157.336 26.4357C157.7 26.2002 158.025 25.9103 158.302 25.576C158.562 25.2663 158.782 24.9256 158.958 24.5617C159.125 24.2225 159.255 23.8663 159.345 23.4991C159.432 23.1827 159.494 22.8596 159.528 22.5332H157.529C157.466 22.9397 157.349 23.3359 157.181 23.7117H157.142ZM61.2205 25.6436H61.2109L54.7678 10.3038H53.3091V26.8028H54.2751V11.55H54.3717L60.7279 26.8028H61.7518L68.0307 11.55H68.079V26.8028H69.1029V10.3038H67.6443L61.2205 25.6436ZM81.0038 16.4668C80.5404 15.8956 79.9566 15.4338 79.294 15.1144C78.5592 14.7833 77.7624 14.612 76.9564 14.612C76.1503 14.612 75.3535 14.7833 74.6187 15.1144C73.9561 15.4338 73.3723 15.8956 72.9089 16.4668C72.4399 17.057 72.0831 17.7282 71.856 18.4471C71.617 19.2198 71.4965 20.0242 71.4986 20.833C71.4965 21.6482 71.617 22.459 71.856 23.2383C72.081 23.958 72.4381 24.6295 72.9089 25.2186C73.3862 25.7963 73.9826 26.2642 74.6573 26.5903C75.3939 26.9149 76.19 27.0826 76.995 27.0826C77.7999 27.0826 78.5961 26.9149 79.3327 26.5903C79.9907 26.268 80.5733 25.8105 81.0424 25.2476C81.517 24.661 81.8744 23.9887 82.0954 23.2673C82.339 22.489 82.4596 21.6775 82.4528 20.862C82.4593 20.0529 82.3387 19.2477 82.0954 18.476C81.8722 17.7555 81.515 17.0837 81.0424 16.4958L81.0038 16.4668ZM81.3226 22.9099C81.1077 23.5458 80.7806 24.138 80.3566 24.6583C79.974 25.1605 79.486 25.5726 78.927 25.8658C78.3147 26.1646 77.6424 26.3199 76.9612 26.3199C76.2799 26.3199 75.6076 26.1646 74.9954 25.8658C74.4475 25.5682 73.9698 25.1564 73.5947 24.6583C73.2016 24.1315 72.9041 23.5397 72.7157 22.9099C72.3162 21.5739 72.3162 20.1502 72.7157 18.8141C72.9042 18.1874 73.2017 17.5987 73.5947 17.0754C73.9778 16.5675 74.4696 16.1516 75.034 15.8582C75.6463 15.5594 76.3186 15.4042 76.9998 15.4042C77.6811 15.4042 78.3534 15.5594 78.9656 15.8582C79.5131 16.1567 79.9881 16.5723 80.3566 17.0754C80.7496 17.5987 81.0472 18.1874 81.2356 18.8141C81.6351 20.1502 81.6351 21.5739 81.2356 22.9099H81.3226ZM89.5527 12.9313C89.9303 12.9346 90.3047 12.8624 90.654 12.7188C91.0115 12.5787 91.3392 12.3722 91.6199 12.1102C91.8922 11.8528 92.1207 11.5526 92.2961 11.2215C92.4719 10.8913 92.5833 10.5307 92.6246 10.1589H91.8614C91.78 10.7198 91.507 11.2352 91.0886 11.6176C90.6725 11.9889 90.1295 12.186 89.5721 12.1682C89.3316 12.1696 89.0918 12.1437 88.8572 12.0909C88.5835 12.0502 88.3207 11.9549 88.0844 11.8108C87.8466 11.6385 87.6406 11.426 87.4759 11.1829C87.2751 10.8914 87.134 10.5631 87.0605 10.2169H86.2974C86.3278 10.6101 86.4357 10.9935 86.6147 11.3449C86.7938 11.6963 87.0405 12.009 87.3406 12.2648C87.9742 12.7452 88.7593 12.9817 89.5527 12.9313V12.9313ZM85.6405 25.6533V14.9212H84.7615V26.8028H85.853L93.2718 16.177V26.8028H94.1508V14.9212H93.0399L85.6405 25.6533Z" fill="black"/>
<path d="M111.954 11.8108C111.231 11.0087 110.336 10.3811 109.336 9.97541C107.077 9.09999 104.572 9.09999 102.313 9.97541C101.308 10.3824 100.407 11.0096 99.6762 11.8108C98.9503 12.6354 98.3983 13.5981 98.0534 14.6411C97.4445 16.5359 97.338 18.5563 97.7443 20.5046C97.889 21.2268 98.1159 21.9301 98.4204 22.6008C98.7226 23.2345 99.1023 23.8283 99.5506 24.3685C100.502 25.5498 101.794 26.4098 103.25 26.8318C104.94 27.3086 106.729 27.3086 108.418 26.8318C109.162 26.6183 109.869 26.2926 110.515 25.8658C111.121 25.4501 111.662 24.9453 112.118 24.3685C112.569 23.8021 112.948 23.1825 113.248 22.5235C113.548 21.8512 113.775 21.1484 113.924 20.4273C114.075 19.7188 114.155 18.9974 114.166 18.2732C114.181 17.0398 113.992 15.8125 113.606 14.6411C113.252 13.5957 112.69 12.6328 111.954 11.8108V11.8108ZM111.5 21.1035C111.277 21.905 110.896 22.6538 110.379 23.3059C109.87 23.9194 109.225 24.4057 108.496 24.7259C106.785 25.3955 104.884 25.3955 103.173 24.7259C102.443 24.4057 101.798 23.9194 101.289 23.3059C100.766 22.6568 100.381 21.9072 100.159 21.1035C99.9068 20.1815 99.7833 19.229 99.7921 18.2732C99.7823 17.3241 99.9192 16.3792 100.198 15.4718C100.44 14.6667 100.841 13.9179 101.376 13.2694C101.898 12.6444 102.56 12.1513 103.308 11.8301C104.108 11.4907 104.968 11.3142 105.837 11.3108C106.706 11.3075 107.567 11.4775 108.37 11.8108C109.117 12.1345 109.778 12.6272 110.302 13.2501C110.833 13.906 111.227 14.6614 111.461 15.4718C111.74 16.3792 111.877 17.3241 111.867 18.2732C111.876 19.229 111.752 20.1815 111.5 21.1035V21.1035ZM133.486 17.3941C133.326 16.9221 133.115 16.4686 132.858 16.0418C132.617 15.639 132.314 15.277 131.959 14.9695C131.599 14.6618 131.187 14.4198 130.742 14.2547C130.254 14.075 129.736 13.9866 129.216 13.9939C128.823 13.9875 128.431 14.0462 128.057 14.1678C127.74 14.2791 127.441 14.4352 127.168 14.6314C126.921 14.8055 126.694 15.0064 126.492 15.2303C126.317 15.4278 126.153 15.6341 125.999 15.8486V15.8486V9.74357H123.768V15.8486C123.614 15.6341 123.45 15.4278 123.275 15.2303C123.078 15.0042 122.854 14.8031 122.609 14.6314C122.015 14.1997 121.295 13.9757 120.561 13.9939C120.027 13.9823 119.497 14.0708 118.996 14.2547C118.553 14.4173 118.144 14.6596 117.788 14.9695C117.428 15.2741 117.121 15.6365 116.88 16.0418C116.626 16.469 116.419 16.9224 116.262 17.3941C116.096 17.884 115.976 18.3886 115.905 18.9011C115.821 19.4316 115.776 19.9675 115.769 20.5046C115.752 21.4859 115.889 22.4638 116.175 23.4025C116.404 24.1601 116.767 24.8702 117.247 25.4987C117.655 26.0315 118.177 26.4671 118.774 26.7738C119.319 27.0492 119.921 27.1947 120.532 27.1988C120.83 27.2023 121.127 27.1764 121.42 27.1216C121.713 27.0741 121.996 26.9829 122.261 26.8511C122.543 26.701 122.8 26.5088 123.024 26.2812C123.294 25.9886 123.528 25.6643 123.719 25.3152V25.3152V31.7003H125.854V25.3345C126.039 25.6878 126.273 26.013 126.55 26.3005C126.777 26.5285 127.038 26.7207 127.323 26.8704C127.584 27.002 127.864 27.0932 128.153 27.1409C128.446 27.1958 128.744 27.2216 129.042 27.2182C129.656 27.2151 130.261 27.0696 130.81 26.7931C131.405 26.4838 131.926 26.0487 132.336 25.518C132.846 24.8896 133.236 24.1724 133.486 23.4025C133.772 22.4638 133.909 21.4859 133.891 20.5046C133.891 19.9712 133.852 19.4385 133.775 18.9107C133.722 18.3979 133.625 17.8905 133.486 17.3941ZM123.826 21.8376C123.883 22.7838 123.64 23.7237 123.13 24.5231C122.896 24.8391 122.587 25.0925 122.232 25.2609C121.876 25.4294 121.485 25.5078 121.092 25.4891C120.702 25.4931 120.316 25.4106 119.962 25.2476C119.658 25.1063 119.383 24.9098 119.15 24.668C118.916 24.4114 118.721 24.1217 118.571 23.8082C118.415 23.4754 118.289 23.1295 118.194 22.7747C118.106 22.4051 118.038 22.031 117.991 21.6541C117.953 21.2947 117.934 20.9336 117.933 20.5722C117.929 19.9561 117.988 19.3413 118.107 18.7369C118.208 18.2081 118.394 17.6991 118.658 17.2299C118.904 16.8399 119.234 16.5099 119.624 16.2639C120.07 16.0092 120.578 15.8822 121.092 15.8969C121.428 15.9029 121.759 15.9855 122.058 16.1384C122.394 16.3057 122.688 16.5467 122.918 16.8435C123.184 17.1867 123.384 17.5765 123.507 17.993C123.679 18.4903 123.767 19.0126 123.768 19.5386L123.826 21.8376ZM131.776 21.6541C131.732 22.0329 131.657 22.4077 131.554 22.7747C131.466 23.1306 131.343 23.4769 131.187 23.8082C131.037 24.1241 130.838 24.4143 130.597 24.668C130.358 24.9146 130.072 25.1116 129.757 25.2476C129.403 25.3975 129.021 25.47 128.636 25.4601C128.249 25.4784 127.863 25.3996 127.514 25.2309C127.165 25.0622 126.863 24.8089 126.637 24.4941C126.127 23.6948 125.884 22.7548 125.941 21.8087V19.5386C125.933 19.0118 126.008 18.487 126.163 17.9834C126.277 17.5569 126.467 17.1545 126.724 16.7952C126.958 16.5028 127.251 16.2626 127.583 16.0901C127.901 15.9298 128.252 15.847 128.607 15.8486C129.115 15.8365 129.616 15.9634 130.056 16.2156C130.451 16.4561 130.782 16.7873 131.022 17.1816C131.284 17.6671 131.464 18.1926 131.554 18.7369C131.681 19.3402 131.743 19.9556 131.737 20.5722C131.749 20.9329 131.743 21.294 131.718 21.6541H131.776ZM138.315 23.8952V14.3706H136.171V26.8028H138.615L144.71 17.2782V26.8028H146.855V14.3706H144.459L138.315 23.8952ZM157.142 23.7117C156.969 24.0672 156.741 24.3932 156.466 24.6776C156.21 24.9336 155.905 25.1342 155.568 25.2669C155.234 25.4036 154.876 25.4725 154.515 25.4697C154.031 25.479 153.551 25.3868 153.105 25.1993C152.689 25.0155 152.329 24.7257 152.061 24.3589C151.747 23.9169 151.52 23.4184 151.395 22.8906C151.228 22.198 151.151 21.4872 151.163 20.7751C151.156 20.1025 151.227 19.4315 151.376 18.7755C151.498 18.2215 151.721 17.6944 152.032 17.2203C152.311 16.8165 152.682 16.4853 153.114 16.2543C153.591 16.0064 154.123 15.8834 154.66 15.8969C155.024 15.8761 155.389 15.9286 155.732 16.0514C156.076 16.1742 156.391 16.3647 156.659 16.6117C157.163 17.1593 157.469 17.8598 157.529 18.6016H159.567C159.54 18.2762 159.488 17.9533 159.412 17.6356C159.325 17.284 159.206 16.9412 159.055 16.6117C158.887 16.2646 158.676 15.94 158.427 15.6457C158.149 15.3295 157.823 15.0589 157.461 14.8439C157.055 14.5968 156.616 14.4081 156.157 14.2837C155.595 14.141 155.017 14.0728 154.438 14.0808C153.723 14.0805 153.017 14.2389 152.37 14.5445C151.711 14.856 151.128 15.3077 150.661 15.8679C150.14 16.4833 149.741 17.1911 149.482 17.9544C149.174 18.849 149.024 19.7903 149.038 20.7364C149.029 21.4835 149.107 22.2291 149.27 22.9582C149.406 23.5479 149.613 24.1189 149.888 24.6583C150.124 25.1128 150.43 25.5269 150.796 25.8851C151.124 26.1982 151.491 26.4676 151.887 26.6869C152.256 26.8923 152.653 27.042 153.066 27.1312C153.442 27.2222 153.828 27.2676 154.215 27.2665C154.815 27.2732 155.413 27.1984 155.993 27.0443C156.468 26.9082 156.92 26.7031 157.336 26.4357C157.7 26.2002 158.025 25.9103 158.302 25.576C158.562 25.2663 158.782 24.9256 158.958 24.5617C159.125 24.2225 159.255 23.8663 159.345 23.4991C159.432 23.1827 159.494 22.8596 159.528 22.5332H157.529C157.466 22.9397 157.349 23.3359 157.181 23.7117H157.142ZM61.2205 25.6436H61.2109L54.7678 10.3038H53.3091V26.8028H54.2751V11.55H54.3717L60.7279 26.8028H61.7518L68.0307 11.55H68.079V26.8028H69.1029V10.3038H67.6443L61.2205 25.6436ZM81.0038 16.4668C80.5404 15.8956 79.9566 15.4338 79.294 15.1144C78.5592 14.7833 77.7624 14.612 76.9564 14.612C76.1503 14.612 75.3535 14.7833 74.6187 15.1144C73.9561 15.4338 73.3723 15.8956 72.9089 16.4668C72.4399 17.057 72.0831 17.7282 71.856 18.4471C71.617 19.2198 71.4965 20.0242 71.4986 20.833C71.4965 21.6482 71.617 22.459 71.856 23.2383C72.081 23.958 72.4381 24.6295 72.9089 25.2186C73.3862 25.7963 73.9826 26.2642 74.6573 26.5903C75.3939 26.9149 76.19 27.0826 76.995 27.0826C77.7999 27.0826 78.5961 26.9149 79.3327 26.5903C79.9907 26.268 80.5733 25.8105 81.0424 25.2476C81.517 24.661 81.8744 23.9887 82.0954 23.2673C82.339 22.489 82.4596 21.6775 82.4528 20.862C82.4593 20.0529 82.3387 19.2477 82.0954 18.476C81.8722 17.7555 81.515 17.0837 81.0424 16.4958L81.0038 16.4668ZM81.3226 22.9099C81.1077 23.5458 80.7806 24.138 80.3566 24.6583C79.974 25.1605 79.486 25.5726 78.927 25.8658C78.3147 26.1646 77.6424 26.3199 76.9612 26.3199C76.2799 26.3199 75.6076 26.1646 74.9954 25.8658C74.4475 25.5682 73.9698 25.1564 73.5947 24.6583C73.2016 24.1315 72.9041 23.5397 72.7157 22.9099C72.3162 21.5739 72.3162 20.1502 72.7157 18.8141C72.9042 18.1874 73.2017 17.5987 73.5947 17.0754C73.9778 16.5675 74.4696 16.1516 75.034 15.8582C75.6463 15.5594 76.3186 15.4042 76.9998 15.4042C77.6811 15.4042 78.3534 15.5594 78.9656 15.8582C79.5131 16.1567 79.9881 16.5723 80.3566 17.0754C80.7496 17.5987 81.0472 18.1874 81.2356 18.8141C81.6351 20.1502 81.6351 21.5739 81.2356 22.9099H81.3226ZM89.5527 12.9313C89.9303 12.9346 90.3047 12.8624 90.654 12.7188C91.0115 12.5787 91.3392 12.3722 91.6199 12.1102C91.8922 11.8528 92.1207 11.5526 92.2961 11.2215C92.4719 10.8913 92.5833 10.5307 92.6246 10.1589H91.8614C91.78 10.7198 91.507 11.2352 91.0886 11.6176C90.6725 11.9889 90.1295 12.186 89.5721 12.1682C89.3316 12.1696 89.0918 12.1437 88.8572 12.0909C88.5835 12.0502 88.3207 11.9549 88.0844 11.8108C87.8466 11.6385 87.6406 11.426 87.4759 11.1829C87.2751 10.8914 87.134 10.5631 87.0605 10.2169H86.2974C86.3278 10.6101 86.4357 10.9935 86.6147 11.3449C86.7938 11.6963 87.0405 12.009 87.3406 12.2648C87.9742 12.7452 88.7593 12.9817 89.5527 12.9313V12.9313ZM85.6405 25.6533V14.9212H84.7615V26.8028H85.853L93.2718 16.177V26.8028H94.1508V14.9212H93.0399L85.6405 25.6533Z" stroke="black" stroke-width="0.65" stroke-miterlimit="10"/>
</g>
<defs>
<radialGradient id="paint0_radial_377:1313" cx="0" cy="0" r="1" gradientUnits="userSpaceOnUse" gradientTransform="translate(20.8082 20.8) scale(20.8041)">
<stop stop-color="#261C38" stop-opacity="0.6"/>
<stop offset="0.28" stop-color="#261C38" stop-opacity="0.3"/>
<stop offset="0.86" stop-color="#302640" stop-opacity="0.05"/>
<stop offset="1" stop-color="#302640" stop-opacity="0"/>
</radialGradient>
<clipPath id="clip0_377:1313">
<rect width="106.915" height="23" fill="white" transform="translate(53 9)"/>
</clipPath>
</defs>
</svg>
