<svg width="1196" height="366" viewBox="0 0 1196 366" fill="none" xmlns="http://www.w3.org/2000/svg">
<path d="M147.965 0H0V147.965H147.965V0Z" fill="#E62B1E"/>
<path d="M147.965 174.046H0V322.011H147.965V174.046Z" fill="#E62B1E"/>
<path d="M322.138 0H174.174V147.965H322.138V0Z" fill="#E62B1E"/>
<path d="M289.123 218.703C289.123 232.761 284.543 243.894 275.319 252.227C266.159 260.497 253.754 264.632 237.978 264.632H194.339V322.456H174.174V174.046H236.706C253.372 174.046 266.286 177.927 275.383 185.751C284.543 193.512 289.123 204.517 289.123 218.703ZM268.894 218.894C268.894 199.746 257.38 190.14 234.288 190.14H194.339V248.728H235.179C257.634 248.728 268.894 238.741 268.894 218.894Z" fill="#E62B1E"/>
<path d="M322.075 322.456V174.046H434.798V190.458H342.177V238.041H428.436V254.263H342.177V305.98H439.123V322.393H322.075V322.456Z" fill="#E62B1E"/>
<path d="M577.801 305.599H596.249V365.395H577.292V322.393H474.556V365.395H455.599V305.599H470.803C476.274 298.792 480.918 289.25 484.734 276.973C488.615 264.632 491.859 248.22 494.467 227.8L501.528 174.11H577.864V305.599H577.801ZM558.208 305.599V190.904H518.64L513.488 229.644C510.879 248.856 508.017 264.568 504.836 276.718C501.655 288.868 497.902 298.474 493.449 305.599H558.208Z" fill="#E62B1E"/>
<path d="M677.292 190.077C661.262 190.077 648.73 195.229 639.824 205.598C630.918 215.904 626.465 229.962 626.465 247.965C626.465 265.713 631.109 280.026 640.333 290.84C649.684 301.591 662.279 306.998 678.119 306.998C698.412 306.998 713.679 296.947 723.921 276.909L739.951 284.924C733.972 297.393 725.575 306.871 714.76 313.423C704.01 319.912 691.478 323.22 677.165 323.22C662.534 323.22 649.875 320.23 639.188 314.186C628.564 308.08 620.422 299.428 614.76 288.169C609.226 276.845 606.427 263.487 606.427 248.092C606.427 225 612.661 206.871 625.129 193.83C637.597 180.726 654.9 174.173 677.038 174.173C692.496 174.173 705.409 177.163 715.715 183.206C726.084 189.25 733.717 198.156 738.552 210.051L719.913 216.222C716.542 207.825 711.134 201.336 703.628 196.883C696.313 192.303 687.534 190.077 677.292 190.077Z" fill="black"/>
<path d="M902.865 247.965C902.865 263.105 899.939 276.4 894.087 287.723C888.298 299.11 880.028 307.825 869.15 313.932C858.336 320.039 845.486 323.093 830.728 323.093C815.842 323.093 802.992 320.103 792.114 314.059C781.364 308.016 773.094 299.301 767.432 287.914C761.707 276.464 758.908 263.169 758.908 247.901C758.908 224.746 765.27 206.616 777.929 193.639C790.651 180.535 808.272 173.983 830.919 173.983C845.677 173.983 858.463 176.909 869.341 182.825C880.155 188.677 888.425 197.138 894.15 208.334C900.003 219.53 902.865 232.698 902.865 247.965ZM882.827 247.965C882.827 229.963 878.311 215.777 869.214 205.535C860.244 195.23 847.522 190.14 831.046 190.14C814.443 190.14 801.593 195.23 792.56 205.344C783.527 215.459 778.946 229.708 778.946 248.029C778.946 266.159 783.527 280.599 792.623 291.286C801.847 301.909 814.57 307.189 830.791 307.189C847.522 307.189 860.372 302.037 869.278 291.795C878.311 281.362 882.827 266.795 882.827 247.965Z" fill="black"/>
<path d="M1066.35 244.212C1066.35 254.708 1064.13 263.996 1059.74 272.202C1055.41 280.281 1049.18 286.578 1040.97 291.031C1032.83 295.484 1023.22 297.711 1012.28 297.711H1008.15V321.057H988.489V297.711H984.354C973.285 297.711 963.68 295.484 955.537 291.031C947.395 286.515 941.097 280.217 936.771 272.138C932.446 263.996 930.283 254.708 930.283 244.275C930.283 227.99 935.054 215.331 944.596 206.362C954.201 197.329 967.815 192.812 985.436 192.812H988.425V174.11H1008.08V192.812H1010.94C1028.63 192.812 1042.24 197.329 1051.78 206.362C1061.58 215.331 1066.35 227.99 1066.35 244.212ZM1046.63 244.657C1046.63 219.53 1034.04 206.934 1008.78 206.934H1008.27V283.652H1009.61C1021.57 283.652 1030.73 280.344 1037.09 273.792C1043.39 267.176 1046.63 257.443 1046.63 244.657ZM950.13 244.657C950.13 257.507 953.311 267.176 959.672 273.728C966.034 280.281 975.194 283.589 987.153 283.589H988.489V206.871H987.535C975.067 206.871 965.652 209.924 959.418 216.095C953.311 222.329 950.13 231.807 950.13 244.657Z" fill="black"/>
<path d="M1146 190.077V318.894H1126.47V190.077H1076.66V174.046H1195.87V190.077H1146Z" fill="black"/>
</svg>
